<svg id="visual" viewBox="0 0 900 100" width="900" height="100" xmlns="http://www.w3.org/2000/svg" xmlns:xlink="http://www.w3.org/1999/xlink" version="1.1"><rect x="0" y="0" width="900" height="100" fill="#001220"></rect><path d="M0 32L7.5 33.7C15 35.3 30 38.7 45 43C60 47.3 75 52.7 90 56.2C105 59.7 120 61.3 135 54.5C150 47.7 165 32.3 180 31.5C195 30.7 210 44.3 225 51.2C240 58 255 58 270 57C285 56 300 54 315 50.3C330 46.7 345 41.3 360 41C375 40.7 390 45.3 405 48.3C420 51.3 435 52.7 450 52C465 51.3 480 48.7 495 50.3C510 52 525 58 540 62.7C555 67.3 570 70.7 585 62.3C600 54 615 34 630 28.3C645 22.7 660 31.3 675 37C690 42.7 705 45.3 720 50.2C735 55 750 62 765 64.3C780 66.7 795 64.3 810 64.3C825 64.3 840 66.7 855 64.5C870 62.3 885 55.7 892.5 52.3L900 49L900 101L892.5 101C885 101 870 101 855 101C840 101 825 101 810 101C795 101 780 101 765 101C750 101 735 101 720 101C705 101 690 101 675 101C660 101 645 101 630 101C615 101 600 101 585 101C570 101 555 101 540 101C525 101 510 101 495 101C480 101 465 101 450 101C435 101 420 101 405 101C390 101 375 101 360 101C345 101 330 101 315 101C300 101 285 101 270 101C255 101 240 101 225 101C210 101 195 101 180 101C165 101 150 101 135 101C120 101 105 101 90 101C75 101 60 101 45 101C30 101 15 101 7.5 101L0 101Z" fill="#001220"></path><path d="M0 73L7.5 66.7C15 60.3 30 47.7 45 45.8C60 44 75 53 90 52C105 51 120 40 135 34.8C150 29.7 165 30.3 180 33.8C195 37.3 210 43.7 225 47.5C240 51.3 255 52.7 270 48.7C285 44.7 300 35.3 315 36.5C330 37.7 345 49.3 360 53.5C375 57.7 390 54.3 405 54C420 53.7 435 56.3 450 53.2C465 50 480 41 495 43.8C510 46.7 525 61.3 540 66.8C555 72.3 570 68.7 585 68.8C600 69 615 73 630 67C645 61 660 45 675 38.3C690 31.7 705 34.3 720 40.2C735 46 750 55 765 58.3C780 61.7 795 59.3 810 61.5C825 63.7 840 70.3 855 72.5C870 74.7 885 72.3 892.5 71.2L900 70L900 101L892.5 101C885 101 870 101 855 101C840 101 825 101 810 101C795 101 780 101 765 101C750 101 735 101 720 101C705 101 690 101 675 101C660 101 645 101 630 101C615 101 600 101 585 101C570 101 555 101 540 101C525 101 510 101 495 101C480 101 465 101 450 101C435 101 420 101 405 101C390 101 375 101 360 101C345 101 330 101 315 101C300 101 285 101 270 101C255 101 240 101 225 101C210 101 195 101 180 101C165 101 150 101 135 101C120 101 105 101 90 101C75 101 60 101 45 101C30 101 15 101 7.5 101L0 101Z" fill="#0e1f3c"></path><path d="M0 47L7.5 47.3C15 47.7 30 48.3 45 46.3C60 44.3 75 39.7 90 42.3C105 45 120 55 135 62.7C150 70.3 165 75.7 180 78.2C195 80.7 210 80.3 225 77.2C240 74 255 68 270 61.7C285 55.3 300 48.7 315 48.5C330 48.3 345 54.7 360 59C375 63.3 390 65.7 405 62.8C420 60 435 52 450 51.3C465 50.7 480 57.3 495 57.7C510 58 525 52 540 48.2C555 44.3 570 42.7 585 43.2C600 43.7 615 46.3 630 52C645 57.7 660 66.3 675 65.2C690 64 705 53 720 46C735 39 750 36 765 35.2C780 34.3 795 35.7 810 37.5C825 39.3 840 41.7 855 42.2C870 42.7 885 41.3 892.5 40.7L900 40L900 101L892.5 101C885 101 870 101 855 101C840 101 825 101 810 101C795 101 780 101 765 101C750 101 735 101 720 101C705 101 690 101 675 101C660 101 645 101 630 101C615 101 600 101 585 101C570 101 555 101 540 101C525 101 510 101 495 101C480 101 465 101 450 101C435 101 420 101 405 101C390 101 375 101 360 101C345 101 330 101 315 101C300 101 285 101 270 101C255 101 240 101 225 101C210 101 195 101 180 101C165 101 150 101 135 101C120 101 105 101 90 101C75 101 60 101 45 101C30 101 15 101 7.5 101L0 101Z" fill="#2f2956"></path><path d="M0 77L7.5 73C15 69 30 61 45 57.3C60 53.7 75 54.3 90 52.8C105 51.3 120 47.7 135 52.2C150 56.7 165 69.3 180 70.7C195 72 210 62 225 56.8C240 51.7 255 51.3 270 54.2C285 57 300 63 315 64.2C330 65.3 345 61.7 360 61.5C375 61.3 390 64.7 405 67.8C420 71 435 74 450 74.8C465 75.7 480 74.3 495 72.2C510 70 525 67 540 67.8C555 68.7 570 73.3 585 72.2C600 71 615 64 630 60.5C645 57 660 57 675 59.8C690 62.7 705 68.3 720 68.2C735 68 750 62 765 58.3C780 54.7 795 53.3 810 55.3C825 57.3 840 62.7 855 68C870 73.3 885 78.7 892.5 81.3L900 84L900 101L892.5 101C885 101 870 101 855 101C840 101 825 101 810 101C795 101 780 101 765 101C750 101 735 101 720 101C705 101 690 101 675 101C660 101 645 101 630 101C615 101 600 101 585 101C570 101 555 101 540 101C525 101 510 101 495 101C480 101 465 101 450 101C435 101 420 101 405 101C390 101 375 101 360 101C345 101 330 101 315 101C300 101 285 101 270 101C255 101 240 101 225 101C210 101 195 101 180 101C165 101 150 101 135 101C120 101 105 101 90 101C75 101 60 101 45 101C30 101 15 101 7.5 101L0 101Z" fill="#592c68"></path><path d="M0 49L7.5 53.7C15 58.3 30 67.7 45 69.2C60 70.7 75 64.3 90 60.3C105 56.3 120 54.7 135 57.2C150 59.7 165 66.3 180 67.7C195 69 210 65 225 65C240 65 255 69 270 72.2C285 75.3 300 77.7 315 73.7C330 69.7 345 59.3 360 54.5C375 49.7 390 50.3 405 56.2C420 62 435 73 450 72.7C465 72.3 480 60.7 495 59C510 57.3 525 65.7 540 69.7C555 73.7 570 73.3 585 75C600 76.7 615 80.3 630 81.3C645 82.3 660 80.7 675 74.7C690 68.7 705 58.3 720 59.3C735 60.3 750 72.7 765 73.5C780 74.3 795 63.7 810 58C825 52.3 840 51.7 855 53.3C870 55 885 59 892.5 61L900 63L900 101L892.5 101C885 101 870 101 855 101C840 101 825 101 810 101C795 101 780 101 765 101C750 101 735 101 720 101C705 101 690 101 675 101C660 101 645 101 630 101C615 101 600 101 585 101C570 101 555 101 540 101C525 101 510 101 495 101C480 101 465 101 450 101C435 101 420 101 405 101C390 101 375 101 360 101C345 101 330 101 315 101C300 101 285 101 270 101C255 101 240 101 225 101C210 101 195 101 180 101C165 101 150 101 135 101C120 101 105 101 90 101C75 101 60 101 45 101C30 101 15 101 7.5 101L0 101Z" fill="#872a6e"></path><path d="M0 84L7.5 79.8C15 75.7 30 67.3 45 68C60 68.7 75 78.3 90 80.2C105 82 120 76 135 71.2C150 66.3 165 62.7 180 64C195 65.3 210 71.7 225 74C240 76.3 255 74.7 270 73.3C285 72 300 71 315 70.8C330 70.7 345 71.3 360 73.7C375 76 390 80 405 82.2C420 84.3 435 84.7 450 80.3C465 76 480 67 495 64C510 61 525 64 540 67.7C555 71.3 570 75.7 585 78.3C600 81 615 82 630 82.2C645 82.3 660 81.7 675 77.5C690 73.3 705 65.7 720 64.3C735 63 750 68 765 69.3C780 70.7 795 68.3 810 68.8C825 69.3 840 72.7 855 71.5C870 70.3 885 64.7 892.5 61.8L900 59L900 101L892.5 101C885 101 870 101 855 101C840 101 825 101 810 101C795 101 780 101 765 101C750 101 735 101 720 101C705 101 690 101 675 101C660 101 645 101 630 101C615 101 600 101 585 101C570 101 555 101 540 101C525 101 510 101 495 101C480 101 465 101 450 101C435 101 420 101 405 101C390 101 375 101 360 101C345 101 330 101 315 101C300 101 285 101 270 101C255 101 240 101 225 101C210 101 195 101 180 101C165 101 150 101 135 101C120 101 105 101 90 101C75 101 60 101 45 101C30 101 15 101 7.5 101L0 101Z" fill="#b32468"></path><path d="M0 82L7.5 80.7C15 79.3 30 76.7 45 75.7C60 74.7 75 75.3 90 75.2C105 75 120 74 135 73.8C150 73.7 165 74.3 180 77.3C195 80.3 210 85.7 225 85.3C240 85 255 79 270 78C285 77 300 81 315 81.8C330 82.7 345 80.3 360 81.2C375 82 390 86 405 84.8C420 83.7 435 77.3 450 77.2C465 77 480 83 495 83.7C510 84.3 525 79.7 540 78.8C555 78 570 81 585 79.8C600 78.7 615 73.3 630 70.2C645 67 660 66 675 67C690 68 705 71 720 71.3C735 71.7 750 69.3 765 72.2C780 75 795 83 810 86.2C825 89.3 840 87.7 855 84.8C870 82 885 78 892.5 76L900 74L900 101L892.5 101C885 101 870 101 855 101C840 101 825 101 810 101C795 101 780 101 765 101C750 101 735 101 720 101C705 101 690 101 675 101C660 101 645 101 630 101C615 101 600 101 585 101C570 101 555 101 540 101C525 101 510 101 495 101C480 101 465 101 450 101C435 101 420 101 405 101C390 101 375 101 360 101C345 101 330 101 315 101C300 101 285 101 270 101C255 101 240 101 225 101C210 101 195 101 180 101C165 101 150 101 135 101C120 101 105 101 90 101C75 101 60 101 45 101C30 101 15 101 7.5 101L0 101Z" fill="#d92a57"></path><path d="M0 82L7.5 81.2C15 80.3 30 78.7 45 80.5C60 82.3 75 87.7 90 88C105 88.3 120 83.7 135 82C150 80.3 165 81.7 180 83C195 84.3 210 85.7 225 84.2C240 82.7 255 78.3 270 79.3C285 80.3 300 86.7 315 86.8C330 87 345 81 360 80C375 79 390 83 405 83.8C420 84.7 435 82.3 450 83C465 83.7 480 87.3 495 86.7C510 86 525 81 540 80.7C555 80.3 570 84.7 585 87.3C600 90 615 91 630 91.2C645 91.3 660 90.7 675 89.8C690 89 705 88 720 85.2C735 82.3 750 77.7 765 76C780 74.3 795 75.7 810 78.8C825 82 840 87 855 87.3C870 87.7 885 83.3 892.5 81.2L900 79L900 101L892.5 101C885 101 870 101 855 101C840 101 825 101 810 101C795 101 780 101 765 101C750 101 735 101 720 101C705 101 690 101 675 101C660 101 645 101 630 101C615 101 600 101 585 101C570 101 555 101 540 101C525 101 510 101 495 101C480 101 465 101 450 101C435 101 420 101 405 101C390 101 375 101 360 101C345 101 330 101 315 101C300 101 285 101 270 101C255 101 240 101 225 101C210 101 195 101 180 101C165 101 150 101 135 101C120 101 105 101 90 101C75 101 60 101 45 101C30 101 15 101 7.5 101L0 101Z" fill="#f3443b"></path><path d="M0 96L7.5 94C15 92 30 88 45 86.8C60 85.7 75 87.3 90 87.7C105 88 120 87 135 86C150 85 165 84 180 84.5C195 85 210 87 225 87.8C240 88.7 255 88.3 270 87.3C285 86.3 300 84.7 315 85.3C330 86 345 89 360 91.2C375 93.3 390 94.7 405 94C420 93.3 435 90.7 450 89.2C465 87.7 480 87.3 495 87C510 86.7 525 86.3 540 86.7C555 87 570 88 585 88.5C600 89 615 89 630 89.7C645 90.3 660 91.7 675 91.8C690 92 705 91 720 90.5C735 90 750 90 765 89.5C780 89 795 88 810 88.8C825 89.7 840 92.3 855 91.7C870 91 885 87 892.5 85L900 83L900 101L892.5 101C885 101 870 101 855 101C840 101 825 101 810 101C795 101 780 101 765 101C750 101 735 101 720 101C705 101 690 101 675 101C660 101 645 101 630 101C615 101 600 101 585 101C570 101 555 101 540 101C525 101 510 101 495 101C480 101 465 101 450 101C435 101 420 101 405 101C390 101 375 101 360 101C345 101 330 101 315 101C300 101 285 101 270 101C255 101 240 101 225 101C210 101 195 101 180 101C165 101 150 101 135 101C120 101 105 101 90 101C75 101 60 101 45 101C30 101 15 101 7.5 101L0 101Z" fill="#ff6900"></path></svg>