<svg id="visual" viewBox="0 0 900 100" width="900" height="100" xmlns="http://www.w3.org/2000/svg" xmlns:xlink="http://www.w3.org/1999/xlink" version="1.1"><rect x="0" y="0" width="900" height="100" fill="#001220"></rect><path d="M0 66L7.5 64.3C15 62.7 30 59.3 45 55C60 50.7 75 45.3 90 41.8C105 38.3 120 36.7 135 43.5C150 50.3 165 65.7 180 66.5C195 67.3 210 53.7 225 46.8C240 40 255 40 270 41C285 42 300 44 315 47.7C330 51.3 345 56.7 360 57C375 57.3 390 52.7 405 49.7C420 46.7 435 45.3 450 46C465 46.7 480 49.3 495 47.7C510 46 525 40 540 35.3C555 30.7 570 27.3 585 35.7C600 44 615 64 630 69.7C645 75.3 660 66.7 675 61C690 55.3 705 52.7 720 47.8C735 43 750 36 765 33.7C780 31.3 795 33.7 810 33.7C825 33.7 840 31.3 855 33.5C870 35.7 885 42.3 892.5 45.7L900 49L900 0L892.5 0C885 0 870 0 855 0C840 0 825 0 810 0C795 0 780 0 765 0C750 0 735 0 720 0C705 0 690 0 675 0C660 0 645 0 630 0C615 0 600 0 585 0C570 0 555 0 540 0C525 0 510 0 495 0C480 0 465 0 450 0C435 0 420 0 405 0C390 0 375 0 360 0C345 0 330 0 315 0C300 0 285 0 270 0C255 0 240 0 225 0C210 0 195 0 180 0C165 0 150 0 135 0C120 0 105 0 90 0C75 0 60 0 45 0C30 0 15 0 7.5 0L0 0Z" fill="#001220"></path><path d="M0 25L7.5 31.3C15 37.7 30 50.3 45 52.2C60 54 75 45 90 46C105 47 120 58 135 63.2C150 68.3 165 67.7 180 64.2C195 60.7 210 54.3 225 50.5C240 46.7 255 45.3 270 49.3C285 53.3 300 62.7 315 61.5C330 60.3 345 48.7 360 44.5C375 40.3 390 43.7 405 44C420 44.3 435 41.7 450 44.8C465 48 480 57 495 54.2C510 51.3 525 36.7 540 31.2C555 25.7 570 29.3 585 29.2C600 29 615 25 630 31C645 37 660 53 675 59.7C690 66.3 705 63.7 720 57.8C735 52 750 43 765 39.7C780 36.3 795 38.7 810 36.5C825 34.3 840 27.7 855 25.5C870 23.3 885 25.7 892.5 26.8L900 28L900 0L892.5 0C885 0 870 0 855 0C840 0 825 0 810 0C795 0 780 0 765 0C750 0 735 0 720 0C705 0 690 0 675 0C660 0 645 0 630 0C615 0 600 0 585 0C570 0 555 0 540 0C525 0 510 0 495 0C480 0 465 0 450 0C435 0 420 0 405 0C390 0 375 0 360 0C345 0 330 0 315 0C300 0 285 0 270 0C255 0 240 0 225 0C210 0 195 0 180 0C165 0 150 0 135 0C120 0 105 0 90 0C75 0 60 0 45 0C30 0 15 0 7.5 0L0 0Z" fill="#0e1f3c"></path><path d="M0 51L7.5 50.7C15 50.3 30 49.7 45 51.7C60 53.7 75 58.3 90 55.7C105 53 120 43 135 35.3C150 27.7 165 22.3 180 19.8C195 17.3 210 17.7 225 20.8C240 24 255 30 270 36.3C285 42.7 300 49.3 315 49.5C330 49.7 345 43.3 360 39C375 34.7 390 32.3 405 35.2C420 38 435 46 450 46.7C465 47.3 480 40.7 495 40.3C510 40 525 46 540 49.8C555 53.7 570 55.3 585 54.8C600 54.3 615 51.7 630 46C645 40.3 660 31.7 675 32.8C690 34 705 45 720 52C735 59 750 62 765 62.8C780 63.7 795 62.3 810 60.5C825 58.7 840 56.3 855 55.8C870 55.3 885 56.7 892.5 57.3L900 58L900 0L892.5 0C885 0 870 0 855 0C840 0 825 0 810 0C795 0 780 0 765 0C750 0 735 0 720 0C705 0 690 0 675 0C660 0 645 0 630 0C615 0 600 0 585 0C570 0 555 0 540 0C525 0 510 0 495 0C480 0 465 0 450 0C435 0 420 0 405 0C390 0 375 0 360 0C345 0 330 0 315 0C300 0 285 0 270 0C255 0 240 0 225 0C210 0 195 0 180 0C165 0 150 0 135 0C120 0 105 0 90 0C75 0 60 0 45 0C30 0 15 0 7.5 0L0 0Z" fill="#2f2956"></path><path d="M0 21L7.5 25C15 29 30 37 45 40.7C60 44.3 75 43.7 90 45.2C105 46.7 120 50.3 135 45.8C150 41.3 165 28.7 180 27.3C195 26 210 36 225 41.2C240 46.3 255 46.7 270 43.8C285 41 300 35 315 33.8C330 32.7 345 36.3 360 36.5C375 36.7 390 33.3 405 30.2C420 27 435 24 450 23.2C465 22.3 480 23.7 495 25.8C510 28 525 31 540 30.2C555 29.3 570 24.7 585 25.8C600 27 615 34 630 37.5C645 41 660 41 675 38.2C690 35.3 705 29.7 720 29.8C735 30 750 36 765 39.7C780 43.3 795 44.7 810 42.7C825 40.7 840 35.3 855 30C870 24.7 885 19.3 892.5 16.7L900 14L900 0L892.5 0C885 0 870 0 855 0C840 0 825 0 810 0C795 0 780 0 765 0C750 0 735 0 720 0C705 0 690 0 675 0C660 0 645 0 630 0C615 0 600 0 585 0C570 0 555 0 540 0C525 0 510 0 495 0C480 0 465 0 450 0C435 0 420 0 405 0C390 0 375 0 360 0C345 0 330 0 315 0C300 0 285 0 270 0C255 0 240 0 225 0C210 0 195 0 180 0C165 0 150 0 135 0C120 0 105 0 90 0C75 0 60 0 45 0C30 0 15 0 7.5 0L0 0Z" fill="#592c68"></path><path d="M0 49L7.5 44.3C15 39.7 30 30.3 45 28.8C60 27.3 75 33.7 90 37.7C105 41.7 120 43.3 135 40.8C150 38.3 165 31.7 180 30.3C195 29 210 33 225 33C240 33 255 29 270 25.8C285 22.7 300 20.3 315 24.3C330 28.3 345 38.7 360 43.5C375 48.3 390 47.7 405 41.8C420 36 435 25 450 25.3C465 25.7 480 37.3 495 39C510 40.7 525 32.3 540 28.3C555 24.3 570 24.7 585 23C600 21.3 615 17.7 630 16.7C645 15.7 660 17.3 675 23.3C690 29.3 705 39.7 720 38.7C735 37.7 750 25.3 765 24.5C780 23.7 795 34.3 810 40C825 45.7 840 46.3 855 44.7C870 43 885 39 892.5 37L900 35L900 0L892.5 0C885 0 870 0 855 0C840 0 825 0 810 0C795 0 780 0 765 0C750 0 735 0 720 0C705 0 690 0 675 0C660 0 645 0 630 0C615 0 600 0 585 0C570 0 555 0 540 0C525 0 510 0 495 0C480 0 465 0 450 0C435 0 420 0 405 0C390 0 375 0 360 0C345 0 330 0 315 0C300 0 285 0 270 0C255 0 240 0 225 0C210 0 195 0 180 0C165 0 150 0 135 0C120 0 105 0 90 0C75 0 60 0 45 0C30 0 15 0 7.5 0L0 0Z" fill="#872a6e"></path><path d="M0 14L7.5 18.2C15 22.3 30 30.7 45 30C60 29.3 75 19.7 90 17.8C105 16 120 22 135 26.8C150 31.7 165 35.3 180 34C195 32.7 210 26.3 225 24C240 21.7 255 23.3 270 24.7C285 26 300 27 315 27.2C330 27.3 345 26.7 360 24.3C375 22 390 18 405 15.8C420 13.7 435 13.3 450 17.7C465 22 480 31 495 34C510 37 525 34 540 30.3C555 26.7 570 22.3 585 19.7C600 17 615 16 630 15.8C645 15.7 660 16.3 675 20.5C690 24.7 705 32.3 720 33.7C735 35 750 30 765 28.7C780 27.3 795 29.7 810 29.2C825 28.7 840 25.3 855 26.5C870 27.7 885 33.3 892.5 36.2L900 39L900 0L892.5 0C885 0 870 0 855 0C840 0 825 0 810 0C795 0 780 0 765 0C750 0 735 0 720 0C705 0 690 0 675 0C660 0 645 0 630 0C615 0 600 0 585 0C570 0 555 0 540 0C525 0 510 0 495 0C480 0 465 0 450 0C435 0 420 0 405 0C390 0 375 0 360 0C345 0 330 0 315 0C300 0 285 0 270 0C255 0 240 0 225 0C210 0 195 0 180 0C165 0 150 0 135 0C120 0 105 0 90 0C75 0 60 0 45 0C30 0 15 0 7.5 0L0 0Z" fill="#b32468"></path><path d="M0 16L7.5 17.3C15 18.7 30 21.3 45 22.3C60 23.3 75 22.7 90 22.8C105 23 120 24 135 24.2C150 24.3 165 23.7 180 20.7C195 17.7 210 12.3 225 12.7C240 13 255 19 270 20C285 21 300 17 315 16.2C330 15.3 345 17.7 360 16.8C375 16 390 12 405 13.2C420 14.3 435 20.7 450 20.8C465 21 480 15 495 14.3C510 13.7 525 18.3 540 19.2C555 20 570 17 585 18.2C600 19.3 615 24.7 630 27.8C645 31 660 32 675 31C690 30 705 27 720 26.7C735 26.3 750 28.7 765 25.8C780 23 795 15 810 11.8C825 8.7 840 10.3 855 13.2C870 16 885 20 892.5 22L900 24L900 0L892.5 0C885 0 870 0 855 0C840 0 825 0 810 0C795 0 780 0 765 0C750 0 735 0 720 0C705 0 690 0 675 0C660 0 645 0 630 0C615 0 600 0 585 0C570 0 555 0 540 0C525 0 510 0 495 0C480 0 465 0 450 0C435 0 420 0 405 0C390 0 375 0 360 0C345 0 330 0 315 0C300 0 285 0 270 0C255 0 240 0 225 0C210 0 195 0 180 0C165 0 150 0 135 0C120 0 105 0 90 0C75 0 60 0 45 0C30 0 15 0 7.5 0L0 0Z" fill="#d92a57"></path><path d="M0 16L7.5 16.8C15 17.7 30 19.3 45 17.5C60 15.7 75 10.3 90 10C105 9.7 120 14.3 135 16C150 17.7 165 16.3 180 15C195 13.7 210 12.3 225 13.8C240 15.3 255 19.7 270 18.7C285 17.7 300 11.3 315 11.2C330 11 345 17 360 18C375 19 390 15 405 14.2C420 13.3 435 15.7 450 15C465 14.3 480 10.7 495 11.3C510 12 525 17 540 17.3C555 17.7 570 13.3 585 10.7C600 8 615 7 630 6.8C645 6.7 660 7.3 675 8.2C690 9 705 10 720 12.8C735 15.7 750 20.3 765 22C780 23.7 795 22.3 810 19.2C825 16 840 11 855 10.7C870 10.3 885 14.7 892.5 16.8L900 19L900 0L892.5 0C885 0 870 0 855 0C840 0 825 0 810 0C795 0 780 0 765 0C750 0 735 0 720 0C705 0 690 0 675 0C660 0 645 0 630 0C615 0 600 0 585 0C570 0 555 0 540 0C525 0 510 0 495 0C480 0 465 0 450 0C435 0 420 0 405 0C390 0 375 0 360 0C345 0 330 0 315 0C300 0 285 0 270 0C255 0 240 0 225 0C210 0 195 0 180 0C165 0 150 0 135 0C120 0 105 0 90 0C75 0 60 0 45 0C30 0 15 0 7.5 0L0 0Z" fill="#f3443b"></path><path d="M0 2L7.5 4C15 6 30 10 45 11.2C60 12.3 75 10.7 90 10.3C105 10 120 11 135 12C150 13 165 14 180 13.5C195 13 210 11 225 10.2C240 9.3 255 9.7 270 10.7C285 11.7 300 13.3 315 12.7C330 12 345 9 360 6.8C375 4.7 390 3.3 405 4C420 4.7 435 7.3 450 8.8C465 10.3 480 10.7 495 11C510 11.3 525 11.7 540 11.3C555 11 570 10 585 9.5C600 9 615 9 630 8.3C645 7.7 660 6.3 675 6.2C690 6 705 7 720 7.5C735 8 750 8 765 8.5C780 9 795 10 810 9.2C825 8.3 840 5.7 855 6.3C870 7 885 11 892.5 13L900 15L900 0L892.5 0C885 0 870 0 855 0C840 0 825 0 810 0C795 0 780 0 765 0C750 0 735 0 720 0C705 0 690 0 675 0C660 0 645 0 630 0C615 0 600 0 585 0C570 0 555 0 540 0C525 0 510 0 495 0C480 0 465 0 450 0C435 0 420 0 405 0C390 0 375 0 360 0C345 0 330 0 315 0C300 0 285 0 270 0C255 0 240 0 225 0C210 0 195 0 180 0C165 0 150 0 135 0C120 0 105 0 90 0C75 0 60 0 45 0C30 0 15 0 7.5 0L0 0Z" fill="#ff6900"></path></svg>